<svg xmlns="http://www.w3.org/2000/svg" version="1.1" xmlns:xlink="http://www.w3.org/1999/xlink" xmlns:svgjs="http://svgjs.dev/svgjs" width="1000" height="1000" viewBox="0 0 1000 1000"><rect width="1000" height="1000" fill="#ffffff"></rect><g transform="matrix(0.7,0,0,0.7,149.57575757575756,426.20658199269315)"><svg viewBox="0 0 396 84" data-background-color="#ffffff" preserveAspectRatio="xMidYMid meet" height="212" width="1000" xmlns="http://www.w3.org/2000/svg" xmlns:xlink="http://www.w3.org/1999/xlink"><g id="tight-bounds" transform="matrix(1,0,0,1,0.2400000000000091,-0.2301407505810289)"><svg viewBox="0 0 395.52 84.46028150116209" height="84.46028150116209" width="395.52"><g><svg viewBox="0 0 517.3486468157228 110.47586049833443" height="84.46028150116209" width="395.52"><g transform="matrix(1,0,0,1,121.82864681572283,31.193160095936037)"><svg viewBox="0 0 395.52 48.089540306462354" height="48.089540306462354" width="395.52"><g id="textblocktransform"><svg viewBox="0 0 395.52 48.089540306462354" height="48.089540306462354" width="395.52" id="textblock"><g><svg viewBox="0 0 395.52 48.089540306462354" height="48.089540306462354" width="395.52"><g transform="matrix(1,0,0,1,0,0)"><svg width="395.52" viewBox="4.35 -35.85 302.66999999999996 36.5" height="48.089540306462354" data-palette-color="#ca3433"><path d="M16.25-34.95L16.25-34.95Q20.25-34.95 22.7-34.08 25.15-33.2 26.28-31.05 27.4-28.9 27.4-25L27.4-25Q27.4-22.2 26.75-20.33 26.1-18.45 24.73-17.43 23.35-16.4 21.05-16.1L21.05-16.1 21.05-15.85Q21.9-15.65 22.73-15.03 23.55-14.4 24.25-13.38 24.95-12.35 25.3-10.9L25.3-10.9 28.65 0 23.95 0 20.9-10.8Q20.25-12.75 19.15-13.58 18.05-14.4 16.3-14.4L16.3-14.4Q13.25-14.4 11-14.43 8.75-14.45 7.25-14.5 5.75-14.55 4.85-14.55L4.85-14.55 5-18.2 16.15-18.2Q18.7-18.25 20.18-18.8 21.65-19.35 22.3-20.78 22.95-22.2 22.95-24.75L22.95-24.75Q22.95-27.3 22.3-28.68 21.65-30.05 20.18-30.6 18.7-31.15 16.15-31.15L16.15-31.15Q12.05-31.15 9.08-31.1 6.1-31.05 5.05-31.05L5.05-31.05 4.35-34.5Q6.25-34.7 7.9-34.8 9.55-34.9 11.53-34.93 13.5-34.95 16.25-34.95ZM4.35-34.5L8.7-34.5 8.7 0 4.35 0 4.35-34.5ZM44.85-24.95L44.85-24.95Q49.05-24.95 51.57-23.7 54.1-22.45 55.2-19.63 56.3-16.8 56.3-12.15L56.3-12.15Q56.3-7.5 55.2-4.67 54.1-1.85 51.57-0.6 49.05 0.65 44.85 0.65L44.85 0.65Q40.7 0.65 38.17-0.6 35.65-1.85 34.52-4.67 33.4-7.5 33.4-12.15L33.4-12.15Q33.4-16.8 34.52-19.63 35.65-22.45 38.17-23.7 40.7-24.95 44.85-24.95ZM44.85-21.35L44.85-21.35Q42.2-21.35 40.67-20.53 39.15-19.7 38.5-17.7 37.85-15.7 37.85-12.15L37.85-12.15Q37.85-8.6 38.5-6.6 39.15-4.6 40.67-3.78 42.2-2.95 44.85-2.95L44.85-2.95Q47.5-2.95 49.05-3.78 50.6-4.6 51.25-6.6 51.9-8.6 51.9-12.15L51.9-12.15Q51.9-15.7 51.25-17.7 50.6-19.7 49.05-20.53 47.5-21.35 44.85-21.35ZM73.34-24.95L73.34-24.95Q74.45-24.95 75.8-24.85 77.15-24.75 78.57-24.5 80-24.25 81.2-23.8L81.2-23.8 80.65-21.05Q79-21.2 77.17-21.28 75.34-21.35 74.05-21.35L74.05-21.35Q71.15-21.35 69.45-20.55 67.75-19.75 67-17.75 66.25-15.75 66.25-12.2L66.25-12.2Q66.25-8.65 67-6.63 67.75-4.6 69.45-3.8 71.15-3 74.05-3L74.05-3Q74.8-3 76-3.05 77.2-3.1 78.57-3.2 79.95-3.3 81.2-3.5L81.2-3.5 81.65-0.65Q79.8 0 77.62 0.3 75.45 0.6 73.3 0.6L73.3 0.6Q69.09 0.6 66.55-0.65 64-1.9 62.87-4.7 61.75-7.5 61.75-12.2L61.75-12.2Q61.75-16.9 62.9-19.7 64.05-22.5 66.59-23.73 69.15-24.95 73.34-24.95ZM102.34-24.35L107.29-24.35 99.64-15.4Q99.29-14.95 98.79-14.48 98.29-14 97.94-13.75L97.94-13.75 97.94-13.65Q98.29-13.4 98.79-12.83 99.29-12.25 99.64-11.7L99.64-11.7 108.09 0 103.14 0 93.49-13.95 102.34-24.35ZM87.39-35L91.64-35 91.69-19.45Q91.69-17.9 91.57-16.57 91.44-15.25 91.19-13.8L91.19-13.8Q91.44-12.4 91.54-11 91.64-9.6 91.64-8.3L91.64-8.3 91.64 0 87.39 0 87.39-35ZM90.14-15.3L95.79-15.3 95.79-12.2 90.14-12.2 90.14-15.3ZM130.49-34.55L130.49-34.55Q132.89-34.55 135.34-34.52 137.79-34.5 140.19-34.45 142.59-34.4 144.79-34.2L144.79-34.2 144.54-30.8 131.59-30.8Q129.84-30.8 129.04-30.03 128.24-29.25 128.24-27.5L128.24-27.5 128.24 0 123.84 0 123.84-28.35Q123.84-31.3 125.64-32.93 127.44-34.55 130.49-34.55ZM124.69-15.95L124.69-19.5 142.64-19.5 142.64-15.95 124.69-15.95ZM160.79-24.95L160.79-24.95Q163.49-24.95 165.36-24.23 167.24-23.5 168.19-21.8 169.14-20.1 169.14-17.15L169.14-17.15 169.14 0 165.79 0 165.14-5.3 164.84-5.85 164.84-17.15Q164.84-19.4 163.81-20.38 162.79-21.35 159.89-21.35L159.89-21.35Q157.99-21.35 155.11-21.15 152.24-20.95 149.44-20.7L149.44-20.7 149.04-23.85Q150.74-24.15 152.76-24.4 154.79-24.65 156.89-24.8 158.99-24.95 160.79-24.95ZM154.69-15L167.14-15 167.09-11.8 155.44-11.75Q153.69-11.7 152.99-10.83 152.29-9.95 152.29-8.4L152.29-8.4 152.29-6.85Q152.29-4.95 153.19-4.08 154.09-3.2 156.09-3.2L156.09-3.2Q157.49-3.2 159.26-3.73 161.04-4.25 162.84-5.35 164.64-6.45 166.14-8.15L166.14-8.15 166.14-5Q165.59-4.3 164.56-3.38 163.54-2.45 162.11-1.58 160.69-0.7 158.96-0.13 157.24 0.45 155.24 0.45L155.24 0.45Q153.09 0.45 151.44-0.33 149.79-1.1 148.86-2.63 147.94-4.15 147.94-6.35L147.94-6.35 147.94-9Q147.94-11.85 149.71-13.43 151.49-15 154.69-15L154.69-15ZM187.13-24.95L187.13-24.95Q188.23-24.95 189.58-24.85 190.93-24.75 192.36-24.5 193.78-24.25 194.98-23.8L194.98-23.8 194.43-21.05Q192.78-21.2 190.96-21.28 189.13-21.35 187.83-21.35L187.83-21.35Q184.93-21.35 183.23-20.55 181.53-19.75 180.78-17.75 180.03-15.75 180.03-12.2L180.03-12.2Q180.03-8.65 180.78-6.63 181.53-4.6 183.23-3.8 184.93-3 187.83-3L187.83-3Q188.58-3 189.78-3.05 190.98-3.1 192.36-3.2 193.73-3.3 194.98-3.5L194.98-3.5 195.43-0.65Q193.58 0 191.41 0.3 189.23 0.6 187.08 0.6L187.08 0.6Q182.88 0.6 180.33-0.65 177.78-1.9 176.66-4.7 175.53-7.5 175.53-12.2L175.53-12.2Q175.53-16.9 176.68-19.7 177.83-22.5 180.38-23.73 182.93-24.95 187.13-24.95ZM210.78-24.95L210.78-24.95Q216.28-24.95 218.76-22.95 221.23-20.95 221.23-17L221.23-17Q221.28-13.75 219.88-11.93 218.48-10.1 215.43-10.1L215.43-10.1 201.23-10.1 201.23-13.4 214.33-13.4Q215.98-13.4 216.48-14.53 216.98-15.65 216.98-17L216.98-17Q216.93-19.35 215.58-20.35 214.23-21.35 210.98-21.35L210.98-21.35Q208.33-21.35 206.81-20.58 205.28-19.8 204.66-17.88 204.03-15.95 204.03-12.5L204.03-12.5Q204.03-8.6 204.81-6.55 205.58-4.5 207.28-3.75 208.98-3 211.78-3L211.78-3Q213.73-3 216.06-3.18 218.38-3.35 220.23-3.6L220.23-3.6 220.68-0.75Q219.53-0.3 217.86 0 216.18 0.3 214.41 0.45 212.63 0.6 211.23 0.6L211.23 0.6Q207.03 0.6 204.48-0.68 201.93-1.95 200.76-4.78 199.58-7.6 199.58-12.25L199.58-12.25Q199.58-17.05 200.76-19.83 201.93-22.6 204.41-23.78 206.88-24.95 210.78-24.95ZM251.58-35.15L251.58-35.15Q255.33-35.15 257.95-34.25 260.58-33.35 262.15-31.28 263.73-29.2 264.45-25.75 265.18-22.3 265.18-17.25L265.18-17.25Q265.18-12.2 264.45-8.75 263.73-5.3 262.15-3.23 260.58-1.15 257.95-0.25 255.33 0.65 251.58 0.65L251.58 0.65Q247.83 0.65 245.2-0.25 242.58-1.15 240.98-3.23 239.38-5.3 238.65-8.75 237.93-12.2 237.93-17.25L237.93-17.25Q237.93-22.3 238.65-25.75 239.38-29.2 240.98-31.28 242.58-33.35 245.2-34.25 247.83-35.15 251.58-35.15ZM251.58-31.2L251.58-31.2Q248.18-31.2 246.2-29.9 244.23-28.6 243.4-25.58 242.58-22.55 242.58-17.25L242.58-17.25Q242.58-12 243.4-8.95 244.23-5.9 246.2-4.6 248.18-3.3 251.58-3.3L251.58-3.3Q254.98-3.3 256.95-4.6 258.93-5.9 259.75-8.95 260.58-12 260.58-17.25L260.58-17.25Q260.58-22.55 259.75-25.58 258.93-28.6 256.95-29.9 254.98-31.2 251.58-31.2ZM281.17-35.85L281.17-35.85Q281.97-35.85 283.22-35.83 284.47-35.8 285.77-35.73 287.07-35.65 288.02-35.5L288.02-35.5 287.67-32.35 282.67-32.35Q280.27-32.35 279.3-31.4 278.32-30.45 278.32-28.25L278.32-28.25 278.32 0 274.07 0 274.07-28.7Q274.07-31 274.77-32.58 275.47-34.15 277.02-35 278.57-35.85 281.17-35.85ZM274.32-24.35L286.12-24.35 286.12-21 269.67-21 269.67-24.1 274.32-24.35ZM300.17-35.85L300.17-35.85Q300.97-35.85 302.22-35.83 303.47-35.8 304.77-35.73 306.07-35.65 307.02-35.5L307.02-35.5 306.67-32.35 301.67-32.35Q299.27-32.35 298.3-31.4 297.32-30.45 297.32-28.25L297.32-28.25 297.32 0 293.07 0 293.07-28.7Q293.07-31 293.77-32.58 294.47-34.15 296.02-35 297.57-35.85 300.17-35.85ZM293.32-24.35L305.12-24.35 305.12-21 288.67-21 288.67-24.1 293.32-24.35Z" opacity="1" transform="matrix(1,0,0,1,0,0)" fill="#000000" class="wordmark-text-0" data-fill-palette-color="primary" id="text-0"></path></svg></g></svg></g></svg></g></svg></g><g><svg viewBox="0 0 110.47586049833443 110.47586049833443" height="110.47586049833443" width="110.47586049833443"><g><svg></svg></g><g id="icon-0"><svg viewBox="0 0 110.47586049833443 110.47586049833443" height="110.47586049833443" width="110.47586049833443"><g><rect width="100.45119908274482" height="100.45119908274482" x="5.012330707794803" y="5.012330707794803" fill="#000000" data-fill-palette-color="accent"></rect><rect width="100.45119908274482" height="100.45119908274482" x="10.024661415589605" y="8.881784197001252e-16" fill="#000000" opacity="0.5" data-fill-palette-color="accent"></rect></g><g transform="matrix(1,0,0,1,14.320944879413723,23.954518778328126)"><svg viewBox="0 0 81.83397073950698 62.566822941678176" height="62.566822941678176" width="81.83397073950698"><g><svg xmlns="http://www.w3.org/2000/svg" xmlns:xlink="http://www.w3.org/1999/xlink" version="1.1" x="0" y="0" viewBox="19.236 27.797 64.530088384679 49.33699999999999" enable-background="new 0 0 100 100" xml:space="preserve" height="62.566822941678176" width="81.83397073950698" class="icon-z$-0" data-fill-palette-color="background" id="z$-0"><path d="M19.236 52.469v21.666c0 0.039 0.01 0.076 0.012 0.115 0.005 0.126 0.017 0.252 0.038 0.378 0.012 0.071 0.024 0.141 0.041 0.209 0.01 0.04 0.013 0.081 0.024 0.121 0.021 0.071 0.052 0.136 0.077 0.204 0.024 0.066 0.045 0.133 0.073 0.196 0.057 0.126 0.124 0.245 0.196 0.36 0.021 0.035 0.038 0.073 0.062 0.106 0.101 0.147 0.214 0.284 0.338 0.41 0.034 0.034 0.073 0.063 0.108 0.097 0.095 0.087 0.192 0.17 0.297 0.244 0.054 0.039 0.111 0.072 0.168 0.107 0.096 0.059 0.194 0.113 0.297 0.161 0.063 0.029 0.127 0.058 0.192 0.083 0.111 0.043 0.225 0.076 0.341 0.105 0.061 0.016 0.12 0.034 0.182 0.046 0.181 0.034 0.365 0.056 0.554 0.056h43.63c0.005 0 0.009 0.001 0.014 0.001 0.226 0 0.452-0.034 0.677-0.087 0.07-0.016 0.136-0.041 0.204-0.062 0.091-0.028 0.183-0.046 0.271-0.083 0.06-0.024 0.108-0.062 0.165-0.089 0.073-0.036 0.144-0.074 0.213-0.115 0.142-0.084 0.271-0.179 0.395-0.283 0.049-0.041 0.102-0.078 0.148-0.124 0.166-0.159 0.315-0.333 0.439-0.523 0.002-0.003 0.005-0.005 0.007-0.008L83.287 52.69c0.528-0.819 0.626-1.844 0.262-2.748l-8.165-20.266c-0.457-1.137-1.56-1.879-2.782-1.879-0.011 0-0.021 0-0.033 0l-23.02 0.253c-0.048 0.001-0.093 0.016-0.14 0.019-0.154 0.009-0.307 0.027-0.458 0.06-0.073 0.016-0.145 0.034-0.216 0.056-0.144 0.042-0.282 0.097-0.419 0.16-0.063 0.029-0.124 0.055-0.185 0.088-0.151 0.084-0.293 0.184-0.431 0.295-0.034 0.028-0.073 0.05-0.106 0.08-0.159 0.141-0.308 0.298-0.438 0.478l-11.033 15.16-14.875 5.191C20.043 50.057 19.236 51.193 19.236 52.469zM32.747 71.135l14.547-9.04c0.015-0.009 0.029-0.015 0.044-0.023 0.011-0.007 0.019-0.016 0.029-0.022l8.123-5.048 5.889 14.134H32.747zM70.585 33.82l6.818 16.923-10.95 16.969-6.739-16.176-5.959-17.531L70.585 33.82zM48.604 37.494l4.692 13.807-6.567 4.081-5.119-8.277L48.604 37.494zM25.236 54.6l11.476-4.005 4.92 7.955L25.236 68.738V54.6z" fill="#ffffff" data-fill-palette-color="background"></path></svg></g></svg></g></svg></g></svg></g></svg></g><defs></defs></svg><rect width="395.52" height="84.46028150116209" fill="none" stroke="none" visibility="hidden"></rect></g></svg></g></svg>